<?xml version="1.0"?>
<!-- Generated by SVGo -->
<svg width="48.102mm" height="86.202mm"
     viewBox="0.000 0.000 48.102 86.202"
     xmlns="http://www.w3.org/2000/svg" 
     xmlns:xlink="http://www.w3.org/1999/xlink">
<polygon points="43.102,81.202 5.001,81.202 5.001,5.001 43.102,5.001" style="fill:none;stroke-width:0.050000mm;stroke:black"/>
<polygon points="7.526,64.676 7.526,78.676 21.526,78.676 21.526,64.676" style="fill:none;stroke-width:0.050000mm;stroke:black"/>
<polygon points="26.576,64.676 26.576,78.676 40.576,78.676 40.576,64.676" style="fill:none;stroke-width:0.050000mm;stroke:black"/>
<polygon points="7.526,45.626 7.526,59.626 21.526,59.626 21.526,45.626" style="fill:none;stroke-width:0.050000mm;stroke:black"/>
<polygon points="26.576,45.626 26.576,59.626 40.576,59.626 40.576,45.626" style="fill:none;stroke-width:0.050000mm;stroke:black"/>
<polygon points="7.526,26.576 7.526,40.576 21.526,40.576 21.526,26.576" style="fill:none;stroke-width:0.050000mm;stroke:black"/>
<polygon points="26.576,26.576 26.576,40.576 40.576,40.576 40.576,26.576" style="fill:none;stroke-width:0.050000mm;stroke:black"/>
<polygon points="7.526,7.526 7.526,21.526 21.526,21.526 21.526,7.526" style="fill:none;stroke-width:0.050000mm;stroke:black"/>
<polygon points="26.576,7.526 26.576,21.526 40.576,21.526 40.576,7.526" style="fill:none;stroke-width:0.050000mm;stroke:black"/>
</svg>
