<?xml version="1.0"?>
<!-- Generated by SVGo -->
<svg width="124.302mm" height="86.202mm"
     viewBox="0.000 0.000 124.302 86.202"
     xmlns="http://www.w3.org/2000/svg" 
     xmlns:xlink="http://www.w3.org/1999/xlink">
<polygon points="119.301,81.202 5.001,81.202 5.001,5.001 119.301,5.001" style="fill:none;stroke-width:0.050000mm;stroke:black"/>
<polygon points="7.526,64.676 7.526,78.676 21.526,78.676 21.526,64.676" style="fill:none;stroke-width:0.050000mm;stroke:black"/>
<polygon points="26.576,64.676 26.576,78.676 40.576,78.676 40.576,64.676" style="fill:none;stroke-width:0.050000mm;stroke:black"/>
<polygon points="45.626,64.676 45.626,78.676 59.626,78.676 59.626,64.676" style="fill:none;stroke-width:0.050000mm;stroke:black"/>
<polygon points="64.676,64.676 64.676,78.676 78.676,78.676 78.676,64.676" style="fill:none;stroke-width:0.050000mm;stroke:black"/>
<polygon points="83.726,64.676 83.726,78.676 97.726,78.676 97.726,64.676" style="fill:none;stroke-width:0.050000mm;stroke:black"/>
<polygon points="102.775,64.676 102.775,78.676 116.775,78.676 116.775,64.676" style="fill:none;stroke-width:0.050000mm;stroke:black"/>
<polygon points="7.526,45.626 7.526,59.626 21.526,59.626 21.526,45.626" style="fill:none;stroke-width:0.050000mm;stroke:black"/>
<polygon points="26.576,45.626 26.576,59.626 40.576,59.626 40.576,45.626" style="fill:none;stroke-width:0.050000mm;stroke:black"/>
<polygon points="45.626,45.626 45.626,59.626 59.626,59.626 59.626,45.626" style="fill:none;stroke-width:0.050000mm;stroke:black"/>
<polygon points="64.676,45.626 64.676,59.626 78.676,59.626 78.676,45.626" style="fill:none;stroke-width:0.050000mm;stroke:black"/>
<polygon points="83.726,45.626 83.726,59.626 97.726,59.626 97.726,45.626" style="fill:none;stroke-width:0.050000mm;stroke:black"/>
<polygon points="102.775,45.626 102.775,59.626 116.775,59.626 116.775,45.626" style="fill:none;stroke-width:0.050000mm;stroke:black"/>
<polygon points="7.526,26.576 7.526,40.576 21.526,40.576 21.526,26.576" style="fill:none;stroke-width:0.050000mm;stroke:black"/>
<polygon points="26.576,26.576 26.576,40.576 40.576,40.576 40.576,26.576" style="fill:none;stroke-width:0.050000mm;stroke:black"/>
<polygon points="45.626,26.576 45.626,40.576 59.626,40.576 59.626,26.576" style="fill:none;stroke-width:0.050000mm;stroke:black"/>
<polygon points="64.676,26.576 64.676,40.576 78.676,40.576 78.676,26.576" style="fill:none;stroke-width:0.050000mm;stroke:black"/>
<polygon points="83.726,26.576 83.726,40.576 97.726,40.576 97.726,26.576" style="fill:none;stroke-width:0.050000mm;stroke:black"/>
<polygon points="102.775,26.576 102.775,40.576 116.775,40.576 116.775,26.576" style="fill:none;stroke-width:0.050000mm;stroke:black"/>
<polygon points="7.526,7.526 7.526,21.526 21.526,21.526 21.526,7.526" style="fill:none;stroke-width:0.050000mm;stroke:black"/>
<polygon points="26.576,7.526 26.576,21.526 40.576,21.526 40.576,7.526" style="fill:none;stroke-width:0.050000mm;stroke:black"/>
<polygon points="45.626,7.526 45.626,21.526 59.626,21.526 59.626,7.526" style="fill:none;stroke-width:0.050000mm;stroke:black"/>
<polygon points="64.676,7.526 64.676,21.526 78.676,21.526 78.676,7.526" style="fill:none;stroke-width:0.050000mm;stroke:black"/>
<polygon points="83.726,7.526 83.726,21.526 97.726,21.526 97.726,7.526" style="fill:none;stroke-width:0.050000mm;stroke:black"/>
<polygon points="102.775,7.526 102.775,21.526 116.775,21.526 116.775,7.526" style="fill:none;stroke-width:0.050000mm;stroke:black"/>
</svg>
