  0
SECTION
  2
HEADER
  9
$ACADVER
  1
AC1009
  9
$FILLMODE
 70
 0
  9
$SPLFRAME
 70
 1
  9
$EXTMIN
 10
0
 20
0
 30
0.0
  9
$EXTMAX
 10
1058.33
 20
1058.33
 30
0.0
  0
ENDSEC
  0
SECTION
  2
TABLES
  0
TABLE
  2
LAYER
 70
1
  0
LAYER
  2
0
 70
     0
 62
     7
  6
CONTINUOUS
  0
ENDTAB
  0
ENDSEC
  0
SECTION
  2
ENTITIES
  0
LINE
  8
0
 62
     0
 10
285.621
 20
41.1949
 30
0.0
 11
283.132
 21
41.1963
 31
0.0
  0
LINE
  8
0
 62
     0
 10
283.132
 20
41.1963
 30
0.0
 11
283.132
 21
54.8968
 31
0.0
  0
LINE
  8
0
 62
     0
 10
283.132
 20
54.8968
 30
0.0
 11
269.281
 21
54.8968
 31
0.0
  0
LINE
  8
0
 62
     0
 10
269.281
 20
54.8968
 30
0.0
 11
269.281
 21
41.0464
 31
0.0
  0
LINE
  8
0
 62
     0
 10
269.281
 20
41.0464
 30
0.0
 11
281.309
 21
41.0464
 31
0.0
  0
LINE
  8
0
 62
     0
 10
281.309
 20
41.0464
 30
0.0
 11
280.695
 21
40.7335
 31
0.0
  0
LINE
  8
0
 62
     0
 10
280.695
 20
40.7335
 30
0.0
 11
280.158
 21
40.1959
 31
0.0
  0
LINE
  8
0
 62
     0
 10
280.158
 20
40.1959
 30
0.0
 11
279.813
 21
39.5206
 31
0.0
  0
LINE
  8
0
 62
     0
 10
279.813
 20
39.5206
 30
0.0
 11
279.695
 21
38.771
 31
0.0
  0
LINE
  8
0
 62
     0
 10
279.695
 20
38.771
 30
0.0
 11
279.813
 21
38.0199
 31
0.0
  0
LINE
  8
0
 62
     0
 10
279.813
 20
38.0199
 30
0.0
 11
280.158
 21
37.3447
 31
0.0
  0
LINE
  8
0
 62
     0
 10
280.158
 20
37.3447
 30
0.0
 11
280.695
 21
36.8088
 31
0.0
  0
LINE
  8
0
 62
     0
 10
280.695
 20
36.8088
 30
0.0
 11
281.369
 21
36.4642
 31
0.0
  0
LINE
  8
0
 62
     0
 10
281.369
 20
36.4642
 30
0.0
 11
282.119
 21
36.3456
 31
0.0
  0
LINE
  8
0
 62
     0
 10
282.119
 20
36.3456
 30
0.0
 11
285.621
 21
36.3456
 31
0.0
  0
LINE
  8
0
 62
     0
 10
285.621
 20
36.3456
 30
0.0
 11
285.621
 21
0.432703
 31
0.0
  0
LINE
  8
0
 62
     0
 10
285.621
 20
0.432703
 30
0.0
 11
0.0950846
 21
0.432703
 31
0.0
  0
LINE
  8
0
 62
     0
 10
0.0950846
 20
0.432703
 30
0.0
 11
0.0950846
 21
36.3456
 31
0.0
  0
LINE
  8
0
 62
     0
 10
0.0950846
 20
36.3456
 30
0.0
 11
3.5953
 21
36.3456
 31
0.0
  0
LINE
  8
0
 62
     0
 10
3.5953
 20
36.3456
 30
0.0
 11
4.34495
 21
36.4642
 31
0.0
  0
LINE
  8
0
 62
     0
 10
4.34495
 20
36.4642
 30
0.0
 11
5.01883
 21
36.8088
 31
0.0
  0
LINE
  8
0
 62
     0
 10
5.01883
 20
36.8088
 30
0.0
 11
5.55625
 21
37.3447
 31
0.0
  0
LINE
  8
0
 62
     0
 10
5.55625
 20
37.3447
 30
0.0
 11
5.90077
 21
38.0199
 31
0.0
  0
LINE
  8
0
 62
     0
 10
5.90077
 20
38.0199
 30
0.0
 11
6.01927
 21
38.7696
 31
0.0
  0
LINE
  8
0
 62
     0
 10
6.01927
 20
38.7696
 30
0.0
 11
5.90077
 21
39.5206
 31
0.0
  0
LINE
  8
0
 62
     0
 10
5.90077
 20
39.5206
 30
0.0
 11
5.55625
 21
40.1959
 31
0.0
  0
LINE
  8
0
 62
     0
 10
5.55625
 20
40.1959
 30
0.0
 11
5.01883
 21
40.7335
 31
0.0
  0
LINE
  8
0
 62
     0
 10
5.01883
 20
40.7335
 30
0.0
 11
4.40559
 21
41.0464
 31
0.0
  0
LINE
  8
0
 62
     0
 10
4.40559
 20
41.0464
 30
0.0
 11
16.4317
 21
41.0464
 31
0.0
  0
LINE
  8
0
 62
     0
 10
16.4317
 20
41.0464
 30
0.0
 11
16.4317
 21
54.8968
 31
0.0
  0
LINE
  8
0
 62
     0
 10
16.4317
 20
54.8968
 30
0.0
 11
2.58107
 21
54.8968
 31
0.0
  0
LINE
  8
0
 62
     0
 10
2.58107
 20
54.8968
 30
0.0
 11
2.58107
 21
41.1949
 31
0.0
  0
LINE
  8
0
 62
     0
 10
2.58107
 20
41.1949
 30
0.0
 11
0.0950846
 21
41.1963
 31
0.0
  0
LINE
  8
0
 62
     0
 10
0.0950846
 20
41.1963
 30
0.0
 11
0.0950846
 21
95.5075
 31
0.0
  0
LINE
  8
0
 62
     0
 10
0.0950846
 20
95.5075
 30
0.0
 11
285.621
 21
95.5075
 31
0.0
  0
LINE
  8
0
 62
     0
 10
285.621
 20
95.5075
 30
0.0
 11
285.621
 21
41.1949
 31
0.0
  0
LINE
  8
0
 62
     0
 10
2.58107
 20
16.7969
 30
0.0
 11
16.4317
 21
16.7969
 31
0.0
  0
LINE
  8
0
 62
     0
 10
16.4317
 20
16.7969
 30
0.0
 11
16.4317
 21
2.94624
 31
0.0
  0
LINE
  8
0
 62
     0
 10
16.4317
 20
2.94624
 30
0.0
 11
2.58107
 21
2.94624
 31
0.0
  0
LINE
  8
0
 62
     0
 10
2.58107
 20
2.94624
 30
0.0
 11
2.58107
 21
16.7969
 31
0.0
  0
LINE
  8
0
 62
     0
 10
40.6823
 20
16.7969
 30
0.0
 11
54.5317
 21
16.7969
 31
0.0
  0
LINE
  8
0
 62
     0
 10
54.5317
 20
16.7969
 30
0.0
 11
54.5317
 21
2.94624
 31
0.0
  0
LINE
  8
0
 62
     0
 10
54.5317
 20
2.94624
 30
0.0
 11
40.6823
 21
2.94624
 31
0.0
  0
LINE
  8
0
 62
     0
 10
40.6823
 20
2.94624
 30
0.0
 11
40.6823
 21
16.7969
 31
0.0
  0
LINE
  8
0
 62
     0
 10
59.7323
 20
16.7969
 30
0.0
 11
73.5817
 21
16.7969
 31
0.0
  0
LINE
  8
0
 62
     0
 10
73.5817
 20
16.7969
 30
0.0
 11
73.5817
 21
2.94624
 31
0.0
  0
LINE
  8
0
 62
     0
 10
73.5817
 20
2.94624
 30
0.0
 11
59.7323
 21
2.94624
 31
0.0
  0
LINE
  8
0
 62
     0
 10
59.7323
 20
2.94624
 30
0.0
 11
59.7323
 21
16.7969
 31
0.0
  0
LINE
  8
0
 62
     0
 10
78.7809
 20
16.7969
 30
0.0
 11
92.6331
 21
16.7969
 31
0.0
  0
LINE
  8
0
 62
     0
 10
92.6331
 20
16.7969
 30
0.0
 11
92.6331
 21
2.94624
 31
0.0
  0
LINE
  8
0
 62
     0
 10
92.6331
 20
2.94624
 30
0.0
 11
78.7809
 21
2.94624
 31
0.0
  0
LINE
  8
0
 62
     0
 10
78.7809
 20
2.94624
 30
0.0
 11
78.7809
 21
16.7969
 31
0.0
  0
LINE
  8
0
 62
     0
 10
97.8309
 20
16.7969
 30
0.0
 11
111.683
 21
16.7969
 31
0.0
  0
LINE
  8
0
 62
     0
 10
111.683
 20
16.7969
 30
0.0
 11
111.683
 21
2.94624
 31
0.0
  0
LINE
  8
0
 62
     0
 10
111.683
 20
2.94624
 30
0.0
 11
97.8309
 21
2.94624
 31
0.0
  0
LINE
  8
0
 62
     0
 10
97.8309
 20
2.94624
 30
0.0
 11
97.8309
 21
16.7969
 31
0.0
  0
LINE
  8
0
 62
     0
 10
116.882
 20
16.7969
 30
0.0
 11
130.732
 21
16.7969
 31
0.0
  0
LINE
  8
0
 62
     0
 10
130.732
 20
16.7969
 30
0.0
 11
130.732
 21
2.94624
 31
0.0
  0
LINE
  8
0
 62
     0
 10
130.732
 20
2.94624
 30
0.0
 11
116.882
 21
2.94624
 31
0.0
  0
LINE
  8
0
 62
     0
 10
116.882
 20
2.94624
 30
0.0
 11
116.882
 21
16.7969
 31
0.0
  0
LINE
  8
0
 62
     0
 10
135.931
 20
16.7969
 30
0.0
 11
149.782
 21
16.7969
 31
0.0
  0
LINE
  8
0
 62
     0
 10
149.782
 20
16.7969
 30
0.0
 11
149.782
 21
2.94624
 31
0.0
  0
LINE
  8
0
 62
     0
 10
149.782
 20
2.94624
 30
0.0
 11
135.931
 21
2.94624
 31
0.0
  0
LINE
  8
0
 62
     0
 10
135.931
 20
2.94624
 30
0.0
 11
135.931
 21
16.7969
 31
0.0
  0
LINE
  8
0
 62
     0
 10
174.031
 20
16.7969
 30
0.0
 11
187.882
 21
16.7969
 31
0.0
  0
LINE
  8
0
 62
     0
 10
187.882
 20
16.7969
 30
0.0
 11
187.882
 21
2.94624
 31
0.0
  0
LINE
  8
0
 62
     0
 10
187.882
 20
2.94624
 30
0.0
 11
174.031
 21
2.94624
 31
0.0
  0
LINE
  8
0
 62
     0
 10
174.031
 20
2.94624
 30
0.0
 11
174.031
 21
16.7969
 31
0.0
  0
LINE
  8
0
 62
     0
 10
193.081
 20
16.7969
 30
0.0
 11
193.081
 21
10.9816
 31
0.0
  0
LINE
  8
0
 62
     0
 10
193.081
 20
10.9816
 30
0.0
 11
192.818
 21
11.497
 31
0.0
  0
LINE
  8
0
 62
     0
 10
192.818
 20
11.497
 30
0.0
 11
192.282
 21
12.0317
 31
0.0
  0
LINE
  8
0
 62
     0
 10
192.282
 20
12.0317
 30
0.0
 11
191.607
 21
12.3775
 31
0.0
  0
LINE
  8
0
 62
     0
 10
191.607
 20
12.3775
 30
0.0
 11
190.857
 21
12.4947
 31
0.0
  0
LINE
  8
0
 62
     0
 10
190.857
 20
12.4947
 30
0.0
 11
190.107
 21
12.3775
 31
0.0
  0
LINE
  8
0
 62
     0
 10
190.107
 20
12.3775
 30
0.0
 11
189.432
 21
12.0317
 31
0.0
  0
LINE
  8
0
 62
     0
 10
189.432
 20
12.0317
 30
0.0
 11
188.896
 21
11.497
 31
0.0
  0
LINE
  8
0
 62
     0
 10
188.896
 20
11.497
 30
0.0
 11
188.55
 21
10.8204
 31
0.0
  0
LINE
  8
0
 62
     0
 10
188.55
 20
10.8204
 30
0.0
 11
188.433
 21
10.0707
 31
0.0
  0
LINE
  8
0
 62
     0
 10
188.433
 20
10.0707
 30
0.0
 11
188.55
 21
9.32106
 31
0.0
  0
LINE
  8
0
 62
     0
 10
188.55
 20
9.32106
 30
0.0
 11
188.896
 21
8.64581
 31
0.0
  0
LINE
  8
0
 62
     0
 10
188.896
 20
8.64581
 30
0.0
 11
189.432
 21
8.10976
 31
0.0
  0
LINE
  8
0
 62
     0
 10
189.432
 20
8.10976
 30
0.0
 11
190.107
 21
7.76386
 31
0.0
  0
LINE
  8
0
 62
     0
 10
190.107
 20
7.76386
 30
0.0
 11
190.857
 21
7.64536
 31
0.0
  0
LINE
  8
0
 62
     0
 10
190.857
 20
7.64536
 30
0.0
 11
191.607
 21
7.76386
 31
0.0
  0
LINE
  8
0
 62
     0
 10
191.607
 20
7.76386
 30
0.0
 11
192.282
 21
8.10976
 31
0.0
  0
LINE
  8
0
 62
     0
 10
192.282
 20
8.10976
 30
0.0
 11
192.818
 21
8.64581
 31
0.0
  0
LINE
  8
0
 62
     0
 10
192.818
 20
8.64581
 30
0.0
 11
193.081
 21
9.1598
 31
0.0
  0
LINE
  8
0
 62
     0
 10
193.081
 20
9.1598
 30
0.0
 11
193.081
 21
2.94624
 31
0.0
  0
LINE
  8
0
 62
     0
 10
193.081
 20
2.94624
 30
0.0
 11
206.932
 21
2.94624
 31
0.0
  0
LINE
  8
0
 62
     0
 10
206.932
 20
2.94624
 30
0.0
 11
206.932
 21
16.7969
 31
0.0
  0
LINE
  8
0
 62
     0
 10
206.932
 20
16.7969
 30
0.0
 11
193.081
 21
16.7969
 31
0.0
  0
LINE
  8
0
 62
     0
 10
212.131
 20
16.7969
 30
0.0
 11
225.982
 21
16.7969
 31
0.0
  0
LINE
  8
0
 62
     0
 10
225.982
 20
16.7969
 30
0.0
 11
225.982
 21
2.94624
 31
0.0
  0
LINE
  8
0
 62
     0
 10
225.982
 20
2.94624
 30
0.0
 11
212.131
 21
2.94624
 31
0.0
  0
LINE
  8
0
 62
     0
 10
212.131
 20
2.94624
 30
0.0
 11
212.131
 21
16.7969
 31
0.0
  0
LINE
  8
0
 62
     0
 10
231.181
 20
16.7969
 30
0.0
 11
245.032
 21
16.7969
 31
0.0
  0
LINE
  8
0
 62
     0
 10
245.032
 20
16.7969
 30
0.0
 11
245.032
 21
2.94624
 31
0.0
  0
LINE
  8
0
 62
     0
 10
245.032
 20
2.94624
 30
0.0
 11
231.181
 21
2.94624
 31
0.0
  0
LINE
  8
0
 62
     0
 10
231.181
 20
2.94624
 30
0.0
 11
231.181
 21
16.7969
 31
0.0
  0
LINE
  8
0
 62
     0
 10
250.231
 20
16.7969
 30
0.0
 11
264.083
 21
16.7969
 31
0.0
  0
LINE
  8
0
 62
     0
 10
264.083
 20
16.7969
 30
0.0
 11
264.083
 21
2.94624
 31
0.0
  0
LINE
  8
0
 62
     0
 10
264.083
 20
2.94624
 30
0.0
 11
250.231
 21
2.94624
 31
0.0
  0
LINE
  8
0
 62
     0
 10
250.231
 20
2.94624
 30
0.0
 11
250.231
 21
16.7969
 31
0.0
  0
LINE
  8
0
 62
     0
 10
269.281
 20
16.7969
 30
0.0
 11
283.132
 21
16.7969
 31
0.0
  0
LINE
  8
0
 62
     0
 10
283.132
 20
16.7969
 30
0.0
 11
283.132
 21
2.94624
 31
0.0
  0
LINE
  8
0
 62
     0
 10
283.132
 20
2.94624
 30
0.0
 11
269.281
 21
2.94624
 31
0.0
  0
LINE
  8
0
 62
     0
 10
269.281
 20
2.94624
 30
0.0
 11
269.281
 21
16.7969
 31
0.0
  0
LINE
  8
0
 62
     0
 10
2.58107
 20
35.8468
 30
0.0
 11
16.4317
 21
35.8468
 31
0.0
  0
LINE
  8
0
 62
     0
 10
16.4317
 20
35.8468
 30
0.0
 11
16.4317
 21
21.9963
 31
0.0
  0
LINE
  8
0
 62
     0
 10
16.4317
 20
21.9963
 30
0.0
 11
2.58107
 21
21.9963
 31
0.0
  0
LINE
  8
0
 62
     0
 10
2.58107
 20
21.9963
 30
0.0
 11
2.58107
 21
35.8468
 31
0.0
  0
LINE
  8
0
 62
     0
 10
40.6823
 20
35.8468
 30
0.0
 11
54.5317
 21
35.8468
 31
0.0
  0
LINE
  8
0
 62
     0
 10
54.5317
 20
35.8468
 30
0.0
 11
54.5317
 21
21.9963
 31
0.0
  0
LINE
  8
0
 62
     0
 10
54.5317
 20
21.9963
 30
0.0
 11
40.6823
 21
21.9963
 31
0.0
  0
LINE
  8
0
 62
     0
 10
40.6823
 20
21.9963
 30
0.0
 11
40.6823
 21
35.8468
 31
0.0
  0
LINE
  8
0
 62
     0
 10
59.7323
 20
35.8468
 30
0.0
 11
73.5817
 21
35.8468
 31
0.0
  0
LINE
  8
0
 62
     0
 10
73.5817
 20
35.8468
 30
0.0
 11
73.5817
 21
21.9963
 31
0.0
  0
LINE
  8
0
 62
     0
 10
73.5817
 20
21.9963
 30
0.0
 11
59.7323
 21
21.9963
 31
0.0
  0
LINE
  8
0
 62
     0
 10
59.7323
 20
21.9963
 30
0.0
 11
59.7323
 21
35.8468
 31
0.0
  0
LINE
  8
0
 62
     0
 10
78.7809
 20
35.8468
 30
0.0
 11
92.6331
 21
35.8468
 31
0.0
  0
LINE
  8
0
 62
     0
 10
92.6331
 20
35.8468
 30
0.0
 11
92.6331
 21
21.9963
 31
0.0
  0
LINE
  8
0
 62
     0
 10
92.6331
 20
21.9963
 30
0.0
 11
78.7809
 21
21.9963
 31
0.0
  0
LINE
  8
0
 62
     0
 10
78.7809
 20
21.9963
 30
0.0
 11
78.7809
 21
35.8468
 31
0.0
  0
LINE
  8
0
 62
     0
 10
97.8309
 20
35.8468
 30
0.0
 11
111.683
 21
35.8468
 31
0.0
  0
LINE
  8
0
 62
     0
 10
111.683
 20
35.8468
 30
0.0
 11
111.683
 21
21.9963
 31
0.0
  0
LINE
  8
0
 62
     0
 10
111.683
 20
21.9963
 30
0.0
 11
97.8309
 21
21.9963
 31
0.0
  0
LINE
  8
0
 62
     0
 10
97.8309
 20
21.9963
 30
0.0
 11
97.8309
 21
35.8468
 31
0.0
  0
LINE
  8
0
 62
     0
 10
116.882
 20
35.8468
 30
0.0
 11
130.732
 21
35.8468
 31
0.0
  0
LINE
  8
0
 62
     0
 10
130.732
 20
35.8468
 30
0.0
 11
130.732
 21
21.9963
 31
0.0
  0
LINE
  8
0
 62
     0
 10
130.732
 20
21.9963
 30
0.0
 11
116.882
 21
21.9963
 31
0.0
  0
LINE
  8
0
 62
     0
 10
116.882
 20
21.9963
 30
0.0
 11
116.882
 21
35.8468
 31
0.0
  0
LINE
  8
0
 62
     0
 10
135.931
 20
35.8468
 30
0.0
 11
149.782
 21
35.8468
 31
0.0
  0
LINE
  8
0
 62
     0
 10
149.782
 20
35.8468
 30
0.0
 11
149.782
 21
21.9963
 31
0.0
  0
LINE
  8
0
 62
     0
 10
149.782
 20
21.9963
 30
0.0
 11
135.931
 21
21.9963
 31
0.0
  0
LINE
  8
0
 62
     0
 10
135.931
 20
21.9963
 30
0.0
 11
135.931
 21
35.8468
 31
0.0
  0
LINE
  8
0
 62
     0
 10
174.031
 20
35.8468
 30
0.0
 11
187.882
 21
35.8468
 31
0.0
  0
LINE
  8
0
 62
     0
 10
187.882
 20
35.8468
 30
0.0
 11
187.882
 21
21.9963
 31
0.0
  0
LINE
  8
0
 62
     0
 10
187.882
 20
21.9963
 30
0.0
 11
174.031
 21
21.9963
 31
0.0
  0
LINE
  8
0
 62
     0
 10
174.031
 20
21.9963
 30
0.0
 11
174.031
 21
35.8468
 31
0.0
  0
LINE
  8
0
 62
     0
 10
193.081
 20
35.8468
 30
0.0
 11
206.932
 21
35.8468
 31
0.0
  0
LINE
  8
0
 62
     0
 10
206.932
 20
35.8468
 30
0.0
 11
206.932
 21
21.9963
 31
0.0
  0
LINE
  8
0
 62
     0
 10
206.932
 20
21.9963
 30
0.0
 11
193.081
 21
21.9963
 31
0.0
  0
LINE
  8
0
 62
     0
 10
193.081
 20
21.9963
 30
0.0
 11
193.081
 21
35.8468
 31
0.0
  0
LINE
  8
0
 62
     0
 10
212.131
 20
35.8468
 30
0.0
 11
225.982
 21
35.8468
 31
0.0
  0
LINE
  8
0
 62
     0
 10
225.982
 20
35.8468
 30
0.0
 11
225.982
 21
21.9963
 31
0.0
  0
LINE
  8
0
 62
     0
 10
225.982
 20
21.9963
 30
0.0
 11
212.131
 21
21.9963
 31
0.0
  0
LINE
  8
0
 62
     0
 10
212.131
 20
21.9963
 30
0.0
 11
212.131
 21
35.8468
 31
0.0
  0
LINE
  8
0
 62
     0
 10
231.181
 20
35.8468
 30
0.0
 11
245.032
 21
35.8468
 31
0.0
  0
LINE
  8
0
 62
     0
 10
245.032
 20
35.8468
 30
0.0
 11
245.032
 21
21.9963
 31
0.0
  0
LINE
  8
0
 62
     0
 10
245.032
 20
21.9963
 30
0.0
 11
231.181
 21
21.9963
 31
0.0
  0
LINE
  8
0
 62
     0
 10
231.181
 20
21.9963
 30
0.0
 11
231.181
 21
35.8468
 31
0.0
  0
LINE
  8
0
 62
     0
 10
250.231
 20
35.8468
 30
0.0
 11
264.083
 21
35.8468
 31
0.0
  0
LINE
  8
0
 62
     0
 10
264.083
 20
35.8468
 30
0.0
 11
264.083
 21
21.9963
 31
0.0
  0
LINE
  8
0
 62
     0
 10
264.083
 20
21.9963
 30
0.0
 11
250.231
 21
21.9963
 31
0.0
  0
LINE
  8
0
 62
     0
 10
250.231
 20
21.9963
 30
0.0
 11
250.231
 21
35.8468
 31
0.0
  0
LINE
  8
0
 62
     0
 10
269.281
 20
35.8468
 30
0.0
 11
283.132
 21
35.8468
 31
0.0
  0
LINE
  8
0
 62
     0
 10
283.132
 20
35.8468
 30
0.0
 11
283.132
 21
21.9963
 31
0.0
  0
LINE
  8
0
 62
     0
 10
283.132
 20
21.9963
 30
0.0
 11
269.281
 21
21.9963
 31
0.0
  0
LINE
  8
0
 62
     0
 10
269.281
 20
21.9963
 30
0.0
 11
269.281
 21
35.8468
 31
0.0
  0
LINE
  8
0
 62
     0
 10
40.6823
 20
54.8968
 30
0.0
 11
54.5317
 21
54.8968
 31
0.0
  0
LINE
  8
0
 62
     0
 10
54.5317
 20
54.8968
 30
0.0
 11
54.5317
 21
41.0464
 31
0.0
  0
LINE
  8
0
 62
     0
 10
54.5317
 20
41.0464
 30
0.0
 11
40.6823
 21
41.0464
 31
0.0
  0
LINE
  8
0
 62
     0
 10
40.6823
 20
41.0464
 30
0.0
 11
40.6823
 21
54.8968
 31
0.0
  0
LINE
  8
0
 62
     0
 10
59.7323
 20
54.8968
 30
0.0
 11
73.5817
 21
54.8968
 31
0.0
  0
LINE
  8
0
 62
     0
 10
73.5817
 20
54.8968
 30
0.0
 11
73.5817
 21
41.0464
 31
0.0
  0
LINE
  8
0
 62
     0
 10
73.5817
 20
41.0464
 30
0.0
 11
59.7323
 21
41.0464
 31
0.0
  0
LINE
  8
0
 62
     0
 10
59.7323
 20
41.0464
 30
0.0
 11
59.7323
 21
54.8968
 31
0.0
  0
LINE
  8
0
 62
     0
 10
78.7809
 20
54.8968
 30
0.0
 11
92.6331
 21
54.8968
 31
0.0
  0
LINE
  8
0
 62
     0
 10
92.6331
 20
54.8968
 30
0.0
 11
92.6331
 21
41.0464
 31
0.0
  0
LINE
  8
0
 62
     0
 10
92.6331
 20
41.0464
 30
0.0
 11
78.7809
 21
41.0464
 31
0.0
  0
LINE
  8
0
 62
     0
 10
78.7809
 20
41.0464
 30
0.0
 11
78.7809
 21
54.8968
 31
0.0
  0
LINE
  8
0
 62
     0
 10
97.8309
 20
54.8968
 30
0.0
 11
111.683
 21
54.8968
 31
0.0
  0
LINE
  8
0
 62
     0
 10
111.683
 20
54.8968
 30
0.0
 11
111.683
 21
41.0464
 31
0.0
  0
LINE
  8
0
 62
     0
 10
111.683
 20
41.0464
 30
0.0
 11
97.8309
 21
41.0464
 31
0.0
  0
LINE
  8
0
 62
     0
 10
97.8309
 20
41.0464
 30
0.0
 11
97.8309
 21
54.8968
 31
0.0
  0
LINE
  8
0
 62
     0
 10
116.882
 20
54.8968
 30
0.0
 11
116.882
 21
41.0464
 31
0.0
  0
LINE
  8
0
 62
     0
 10
116.882
 20
41.0464
 30
0.0
 11
130.732
 21
41.0464
 31
0.0
  0
LINE
  8
0
 62
     0
 10
130.732
 20
41.0464
 30
0.0
 11
130.732
 21
46.9621
 31
0.0
  0
LINE
  8
0
 62
     0
 10
130.732
 20
46.9621
 30
0.0
 11
130.864
 21
47.2211
 31
0.0
  0
LINE
  8
0
 62
     0
 10
130.864
 20
47.2211
 30
0.0
 11
130.983
 21
47.9707
 31
0.0
  0
LINE
  8
0
 62
     0
 10
130.983
 20
47.9707
 30
0.0
 11
130.864
 21
48.7204
 31
0.0
  0
LINE
  8
0
 62
     0
 10
130.864
 20
48.7204
 30
0.0
 11
130.732
 21
48.9797
 31
0.0
  0
LINE
  8
0
 62
     0
 10
130.732
 20
48.9797
 30
0.0
 11
130.732
 21
54.8968
 31
0.0
  0
LINE
  8
0
 62
     0
 10
130.732
 20
54.8968
 30
0.0
 11
116.882
 21
54.8968
 31
0.0
  0
LINE
  8
0
 62
     0
 10
135.931
 20
54.8968
 30
0.0
 11
149.782
 21
54.8968
 31
0.0
  0
LINE
  8
0
 62
     0
 10
149.782
 20
54.8968
 30
0.0
 11
149.782
 21
41.0464
 31
0.0
  0
LINE
  8
0
 62
     0
 10
149.782
 20
41.0464
 30
0.0
 11
135.931
 21
41.0464
 31
0.0
  0
LINE
  8
0
 62
     0
 10
135.931
 20
41.0464
 30
0.0
 11
135.931
 21
54.8968
 31
0.0
  0
LINE
  8
0
 62
     0
 10
174.031
 20
54.8968
 30
0.0
 11
187.882
 21
54.8968
 31
0.0
  0
LINE
  8
0
 62
     0
 10
187.882
 20
54.8968
 30
0.0
 11
187.882
 21
41.0464
 31
0.0
  0
LINE
  8
0
 62
     0
 10
187.882
 20
41.0464
 30
0.0
 11
174.031
 21
41.0464
 31
0.0
  0
LINE
  8
0
 62
     0
 10
174.031
 20
41.0464
 30
0.0
 11
174.031
 21
54.8968
 31
0.0
  0
LINE
  8
0
 62
     0
 10
193.081
 20
54.8968
 30
0.0
 11
206.932
 21
54.8968
 31
0.0
  0
LINE
  8
0
 62
     0
 10
206.932
 20
54.8968
 30
0.0
 11
206.932
 21
41.0464
 31
0.0
  0
LINE
  8
0
 62
     0
 10
206.932
 20
41.0464
 30
0.0
 11
193.081
 21
41.0464
 31
0.0
  0
LINE
  8
0
 62
     0
 10
193.081
 20
41.0464
 30
0.0
 11
193.081
 21
54.8968
 31
0.0
  0
LINE
  8
0
 62
     0
 10
212.131
 20
54.8968
 30
0.0
 11
225.982
 21
54.8968
 31
0.0
  0
LINE
  8
0
 62
     0
 10
225.982
 20
54.8968
 30
0.0
 11
225.982
 21
41.0464
 31
0.0
  0
LINE
  8
0
 62
     0
 10
225.982
 20
41.0464
 30
0.0
 11
212.131
 21
41.0464
 31
0.0
  0
LINE
  8
0
 62
     0
 10
212.131
 20
41.0464
 30
0.0
 11
212.131
 21
54.8968
 31
0.0
  0
LINE
  8
0
 62
     0
 10
231.181
 20
54.8968
 30
0.0
 11
245.032
 21
54.8968
 31
0.0
  0
LINE
  8
0
 62
     0
 10
245.032
 20
54.8968
 30
0.0
 11
245.032
 21
41.0464
 31
0.0
  0
LINE
  8
0
 62
     0
 10
245.032
 20
41.0464
 30
0.0
 11
231.181
 21
41.0464
 31
0.0
  0
LINE
  8
0
 62
     0
 10
231.181
 20
41.0464
 30
0.0
 11
231.181
 21
54.8968
 31
0.0
  0
LINE
  8
0
 62
     0
 10
250.231
 20
54.8968
 30
0.0
 11
264.083
 21
54.8968
 31
0.0
  0
LINE
  8
0
 62
     0
 10
264.083
 20
54.8968
 30
0.0
 11
264.083
 21
41.0464
 31
0.0
  0
LINE
  8
0
 62
     0
 10
264.083
 20
41.0464
 30
0.0
 11
250.231
 21
41.0464
 31
0.0
  0
LINE
  8
0
 62
     0
 10
250.231
 20
41.0464
 30
0.0
 11
250.231
 21
54.8968
 31
0.0
  0
LINE
  8
0
 62
     0
 10
2.58107
 20
73.9468
 30
0.0
 11
16.4317
 21
73.9468
 31
0.0
  0
LINE
  8
0
 62
     0
 10
16.4317
 20
73.9468
 30
0.0
 11
16.4317
 21
60.0964
 31
0.0
  0
LINE
  8
0
 62
     0
 10
16.4317
 20
60.0964
 30
0.0
 11
2.58107
 21
60.0964
 31
0.0
  0
LINE
  8
0
 62
     0
 10
2.58107
 20
60.0964
 30
0.0
 11
2.58107
 21
73.9468
 31
0.0
  0
LINE
  8
0
 62
     0
 10
40.6823
 20
73.9468
 30
0.0
 11
54.5317
 21
73.9468
 31
0.0
  0
LINE
  8
0
 62
     0
 10
54.5317
 20
73.9468
 30
0.0
 11
54.5317
 21
60.0964
 31
0.0
  0
LINE
  8
0
 62
     0
 10
54.5317
 20
60.0964
 30
0.0
 11
40.6823
 21
60.0964
 31
0.0
  0
LINE
  8
0
 62
     0
 10
40.6823
 20
60.0964
 30
0.0
 11
40.6823
 21
73.9468
 31
0.0
  0
LINE
  8
0
 62
     0
 10
59.7323
 20
73.9468
 30
0.0
 11
73.5817
 21
73.9468
 31
0.0
  0
LINE
  8
0
 62
     0
 10
73.5817
 20
73.9468
 30
0.0
 11
73.5817
 21
60.0964
 31
0.0
  0
LINE
  8
0
 62
     0
 10
73.5817
 20
60.0964
 30
0.0
 11
59.7323
 21
60.0964
 31
0.0
  0
LINE
  8
0
 62
     0
 10
59.7323
 20
60.0964
 30
0.0
 11
59.7323
 21
73.9468
 31
0.0
  0
LINE
  8
0
 62
     0
 10
78.7809
 20
73.9468
 30
0.0
 11
92.6331
 21
73.9468
 31
0.0
  0
LINE
  8
0
 62
     0
 10
92.6331
 20
73.9468
 30
0.0
 11
92.6331
 21
60.0964
 31
0.0
  0
LINE
  8
0
 62
     0
 10
92.6331
 20
60.0964
 30
0.0
 11
78.7809
 21
60.0964
 31
0.0
  0
LINE
  8
0
 62
     0
 10
78.7809
 20
60.0964
 30
0.0
 11
78.7809
 21
73.9468
 31
0.0
  0
LINE
  8
0
 62
     0
 10
97.8309
 20
73.9468
 30
0.0
 11
111.683
 21
73.9468
 31
0.0
  0
LINE
  8
0
 62
     0
 10
111.683
 20
73.9468
 30
0.0
 11
111.683
 21
60.0964
 31
0.0
  0
LINE
  8
0
 62
     0
 10
111.683
 20
60.0964
 30
0.0
 11
97.8309
 21
60.0964
 31
0.0
  0
LINE
  8
0
 62
     0
 10
97.8309
 20
60.0964
 30
0.0
 11
97.8309
 21
73.9468
 31
0.0
  0
LINE
  8
0
 62
     0
 10
116.882
 20
73.9468
 30
0.0
 11
130.732
 21
73.9468
 31
0.0
  0
LINE
  8
0
 62
     0
 10
130.732
 20
73.9468
 30
0.0
 11
130.732
 21
60.0964
 31
0.0
  0
LINE
  8
0
 62
     0
 10
130.732
 20
60.0964
 30
0.0
 11
116.882
 21
60.0964
 31
0.0
  0
LINE
  8
0
 62
     0
 10
116.882
 20
60.0964
 30
0.0
 11
116.882
 21
73.9468
 31
0.0
  0
LINE
  8
0
 62
     0
 10
135.931
 20
73.9468
 30
0.0
 11
149.782
 21
73.9468
 31
0.0
  0
LINE
  8
0
 62
     0
 10
149.782
 20
73.9468
 30
0.0
 11
149.782
 21
60.0964
 31
0.0
  0
LINE
  8
0
 62
     0
 10
149.782
 20
60.0964
 30
0.0
 11
135.931
 21
60.0964
 31
0.0
  0
LINE
  8
0
 62
     0
 10
135.931
 20
60.0964
 30
0.0
 11
135.931
 21
73.9468
 31
0.0
  0
LINE
  8
0
 62
     0
 10
174.031
 20
73.9468
 30
0.0
 11
187.882
 21
73.9468
 31
0.0
  0
LINE
  8
0
 62
     0
 10
187.882
 20
73.9468
 30
0.0
 11
187.882
 21
60.0964
 31
0.0
  0
LINE
  8
0
 62
     0
 10
187.882
 20
60.0964
 30
0.0
 11
174.031
 21
60.0964
 31
0.0
  0
LINE
  8
0
 62
     0
 10
174.031
 20
60.0964
 30
0.0
 11
174.031
 21
73.9468
 31
0.0
  0
LINE
  8
0
 62
     0
 10
193.081
 20
73.9468
 30
0.0
 11
206.932
 21
73.9468
 31
0.0
  0
LINE
  8
0
 62
     0
 10
206.932
 20
73.9468
 30
0.0
 11
206.932
 21
60.0964
 31
0.0
  0
LINE
  8
0
 62
     0
 10
206.932
 20
60.0964
 30
0.0
 11
193.081
 21
60.0964
 31
0.0
  0
LINE
  8
0
 62
     0
 10
193.081
 20
60.0964
 30
0.0
 11
193.081
 21
73.9468
 31
0.0
  0
LINE
  8
0
 62
     0
 10
212.131
 20
73.9468
 30
0.0
 11
225.982
 21
73.9468
 31
0.0
  0
LINE
  8
0
 62
     0
 10
225.982
 20
73.9468
 30
0.0
 11
225.982
 21
60.0964
 31
0.0
  0
LINE
  8
0
 62
     0
 10
225.982
 20
60.0964
 30
0.0
 11
212.131
 21
60.0964
 31
0.0
  0
LINE
  8
0
 62
     0
 10
212.131
 20
60.0964
 30
0.0
 11
212.131
 21
73.9468
 31
0.0
  0
LINE
  8
0
 62
     0
 10
231.181
 20
73.9468
 30
0.0
 11
245.032
 21
73.9468
 31
0.0
  0
LINE
  8
0
 62
     0
 10
245.032
 20
73.9468
 30
0.0
 11
245.032
 21
60.0964
 31
0.0
  0
LINE
  8
0
 62
     0
 10
245.032
 20
60.0964
 30
0.0
 11
231.181
 21
60.0964
 31
0.0
  0
LINE
  8
0
 62
     0
 10
231.181
 20
60.0964
 30
0.0
 11
231.181
 21
73.9468
 31
0.0
  0
LINE
  8
0
 62
     0
 10
250.231
 20
73.9468
 30
0.0
 11
264.083
 21
73.9468
 31
0.0
  0
LINE
  8
0
 62
     0
 10
264.083
 20
73.9468
 30
0.0
 11
264.083
 21
60.0964
 31
0.0
  0
LINE
  8
0
 62
     0
 10
264.083
 20
60.0964
 30
0.0
 11
250.231
 21
60.0964
 31
0.0
  0
LINE
  8
0
 62
     0
 10
250.231
 20
60.0964
 30
0.0
 11
250.231
 21
73.9468
 31
0.0
  0
LINE
  8
0
 62
     0
 10
269.281
 20
73.9468
 30
0.0
 11
283.132
 21
73.9468
 31
0.0
  0
LINE
  8
0
 62
     0
 10
283.132
 20
73.9468
 30
0.0
 11
283.132
 21
60.0964
 31
0.0
  0
LINE
  8
0
 62
     0
 10
283.132
 20
60.0964
 30
0.0
 11
269.281
 21
60.0964
 31
0.0
  0
LINE
  8
0
 62
     0
 10
269.281
 20
60.0964
 30
0.0
 11
269.281
 21
73.9468
 31
0.0
  0
LINE
  8
0
 62
     0
 10
24.8074
 20
69.6778
 30
0.0
 11
24.1308
 21
69.3318
 31
0.0
  0
LINE
  8
0
 62
     0
 10
24.1308
 20
69.3318
 30
0.0
 11
23.5961
 21
68.7959
 31
0.0
  0
LINE
  8
0
 62
     0
 10
23.5961
 20
68.7959
 30
0.0
 11
23.2503
 21
68.1221
 31
0.0
  0
LINE
  8
0
 62
     0
 10
23.2503
 20
68.1221
 30
0.0
 11
23.1331
 21
67.371
 31
0.0
  0
LINE
  8
0
 62
     0
 10
23.1331
 20
67.371
 30
0.0
 11
23.2503
 21
66.6214
 31
0.0
  0
LINE
  8
0
 62
     0
 10
23.2503
 20
66.6214
 30
0.0
 11
23.5961
 21
65.9447
 31
0.0
  0
LINE
  8
0
 62
     0
 10
23.5961
 20
65.9447
 30
0.0
 11
24.1308
 21
65.4099
 31
0.0
  0
LINE
  8
0
 62
     0
 10
24.1308
 20
65.4099
 30
0.0
 11
24.8074
 21
65.0642
 31
0.0
  0
LINE
  8
0
 62
     0
 10
24.8074
 20
65.0642
 30
0.0
 11
25.5571
 21
64.9457
 31
0.0
  0
LINE
  8
0
 62
     0
 10
25.5571
 20
64.9457
 30
0.0
 11
26.3067
 21
65.0642
 31
0.0
  0
LINE
  8
0
 62
     0
 10
26.3067
 20
65.0642
 30
0.0
 11
26.9834
 21
65.4099
 31
0.0
  0
LINE
  8
0
 62
     0
 10
26.9834
 20
65.4099
 30
0.0
 11
27.518
 21
65.9447
 31
0.0
  0
LINE
  8
0
 62
     0
 10
27.518
 20
65.9447
 30
0.0
 11
27.8639
 21
66.6214
 31
0.0
  0
LINE
  8
0
 62
     0
 10
27.8639
 20
66.6214
 30
0.0
 11
27.9824
 21
67.371
 31
0.0
  0
LINE
  8
0
 62
     0
 10
27.9824
 20
67.371
 30
0.0
 11
27.8639
 21
68.1221
 31
0.0
  0
LINE
  8
0
 62
     0
 10
27.8639
 20
68.1221
 30
0.0
 11
27.518
 21
68.7959
 31
0.0
  0
LINE
  8
0
 62
     0
 10
27.518
 20
68.7959
 30
0.0
 11
26.9834
 21
69.3318
 31
0.0
  0
LINE
  8
0
 62
     0
 10
26.9834
 20
69.3318
 30
0.0
 11
26.3067
 21
69.6778
 31
0.0
  0
LINE
  8
0
 62
     0
 10
26.3067
 20
69.6778
 30
0.0
 11
25.5571
 21
69.795
 31
0.0
  0
LINE
  8
0
 62
     0
 10
25.5571
 20
69.795
 30
0.0
 11
24.8074
 21
69.6778
 31
0.0
  0
ENDSEC
  0
EOF
